<?xml version="1.0" encoding="UTF-8"?>
<svg xmlns="http://www.w3.org/2000/svg" width="860" height="744" viewBox="0 0 860 744">
<style>
text{font-family:Arial,Helvetica,sans-serif;fill:#202124}
.title{font-size:22px;font-weight:700}
.subtitle{font-size:13px;fill:#5f6368}
.header{font-size:12px;font-weight:700;letter-spacing:.04em;fill:#3c4043}
.row{font-size:13px}
.small{font-size:11px;fill:#5f6368}
.value{font-size:11px;fill:#202124}
</style>
<text class="title" x="44" y="34">Correlated-factor domain loadings</text>
<text class="subtitle" x="44" y="56">Standardized loadings from a mixed continuous/ordinal probit correlated-factor model</text>
<text class="header" x="44" y="78">INDICATOR</text>
<text class="header" x="220" y="78">DOMAIN</text>
<text class="header" x="458" y="78">DOMAIN FACTOR LOADING</text>
<line x1="570" y1="70" x2="570" y2="710" stroke="#d5d8dc" />
<rect x="32" y="70" width="796" height="34" fill="#f8f9fa" />
<text class="row" x="44" y="93">depres</text>
<text class="small" x="220" y="93">psychological</text>
<rect x="570.0" y="81" width="132.9" height="14" rx="2" fill="#4575b4" opacity="0.82" />
<text class="value" x="754" y="92">+0.593</text>
<text class="row" x="44" y="127">effort</text>
<text class="small" x="220" y="127">psychological</text>
<rect x="570.0" y="115" width="134.6" height="14" rx="2" fill="#4575b4" opacity="0.82" />
<text class="value" x="754" y="126">+0.600</text>
<rect x="32" y="138" width="796" height="34" fill="#f8f9fa" />
<text class="row" x="44" y="161">sleep</text>
<text class="small" x="220" y="161">psychological</text>
<rect x="570.0" y="149" width="122.4" height="14" rx="2" fill="#4575b4" opacity="0.82" />
<text class="value" x="754" y="160">+0.546</text>
<text class="row" x="44" y="195">happy</text>
<text class="small" x="220" y="195">psychological</text>
<rect x="570.0" y="183" width="123.2" height="14" rx="2" fill="#4575b4" opacity="0.82" />
<text class="value" x="754" y="194">+0.549</text>
<rect x="32" y="206" width="796" height="34" fill="#f8f9fa" />
<text class="row" x="44" y="229">lonely</text>
<text class="small" x="220" y="229">psychological</text>
<rect x="570.0" y="217" width="123.1" height="14" rx="2" fill="#4575b4" opacity="0.82" />
<text class="value" x="754" y="228">+0.549</text>
<text class="row" x="44" y="263">going</text>
<text class="small" x="220" y="263">psychological</text>
<rect x="570.0" y="251" width="132.2" height="14" rx="2" fill="#4575b4" opacity="0.82" />
<text class="value" x="754" y="262">+0.590</text>
<rect x="32" y="274" width="796" height="34" fill="#f8f9fa" />
<text class="row" x="44" y="297">wspeed</text>
<text class="small" x="220" y="297">locomotor</text>
<rect x="570.0" y="285" width="141.0" height="14" rx="2" fill="#1b9e77" opacity="0.82" />
<text class="value" x="754" y="296">+0.629</text>
<text class="row" x="44" y="331">chr5sec</text>
<text class="small" x="220" y="331">locomotor</text>
<rect x="570.0" y="319" width="133.6" height="14" rx="2" fill="#1b9e77" opacity="0.82" />
<text class="value" x="754" y="330">+0.596</text>
<rect x="32" y="342" width="796" height="34" fill="#f8f9fa" />
<text class="row" x="44" y="365">balance</text>
<text class="small" x="220" y="365">locomotor</text>
<rect x="570.0" y="353" width="103.1" height="14" rx="2" fill="#1b9e77" opacity="0.82" />
<text class="value" x="754" y="364">+0.460</text>
<text class="row" x="44" y="399">grip</text>
<text class="small" x="220" y="399">vitality</text>
<rect x="570.0" y="387" width="170.0" height="14" rx="2" fill="#d95f02" opacity="0.82" />
<text class="value" x="754" y="398">+0.758</text>
<rect x="32" y="410" width="796" height="34" fill="#f8f9fa" />
<text class="row" x="44" y="433">fev</text>
<text class="small" x="220" y="433">vitality</text>
<rect x="570.0" y="421" width="142.7" height="14" rx="2" fill="#d95f02" opacity="0.82" />
<text class="value" x="754" y="432">+0.636</text>
<text class="row" x="44" y="467">hba</text>
<text class="small" x="220" y="467">vitality</text>
<rect x="570.0" y="455" width="65.7" height="14" rx="2" fill="#d95f02" opacity="0.82" />
<text class="value" x="754" y="466">+0.293</text>
<rect x="32" y="478" width="796" height="34" fill="#f8f9fa" />
<text class="row" x="44" y="501">imrc</text>
<text class="small" x="220" y="501">cognitive</text>
<rect x="570.0" y="489" width="117.3" height="14" rx="2" fill="#756bb1" opacity="0.82" />
<text class="value" x="754" y="500">+0.523</text>
<text class="row" x="44" y="535">dlrc</text>
<text class="small" x="220" y="535">cognitive</text>
<rect x="570.0" y="523" width="119.8" height="14" rx="2" fill="#756bb1" opacity="0.82" />
<text class="value" x="754" y="534">+0.534</text>
<rect x="32" y="546" width="796" height="34" fill="#f8f9fa" />
<text class="row" x="44" y="569">memory</text>
<text class="small" x="220" y="569">cognitive</text>
<rect x="570.0" y="557" width="99.9" height="14" rx="2" fill="#756bb1" opacity="0.82" />
<text class="value" x="754" y="568">+0.446</text>
<text class="row" x="44" y="603">hearing</text>
<text class="small" x="220" y="603">sensory</text>
<rect x="570.0" y="591" width="80.6" height="14" rx="2" fill="#6b6b6b" opacity="0.82" />
<text class="value" x="754" y="602">+0.360</text>
<rect x="32" y="614" width="796" height="34" fill="#f8f9fa" />
<text class="row" x="44" y="637">nsight</text>
<text class="small" x="220" y="637">sensory</text>
<rect x="570.0" y="625" width="128.7" height="14" rx="2" fill="#6b6b6b" opacity="0.82" />
<text class="value" x="754" y="636">+0.574</text>
<text class="row" x="44" y="671">dsight</text>
<text class="small" x="220" y="671">sensory</text>
<rect x="570.0" y="659" width="132.3" height="14" rx="2" fill="#6b6b6b" opacity="0.82" />
<text class="value" x="754" y="670">+0.590</text>
<text class="small" x="44" y="726">Continuous: wspeed, chr5sec, grip, fev, hba. Ordinal probit: depres, effort, sleep, happy, lonely, going, balance, imrc, dlrc, memory, hearing, nsight, dsight.</text>
</svg>
