<?xml version="1.0" encoding="UTF-8"?>
<svg xmlns="http://www.w3.org/2000/svg" width="1160" height="744" viewBox="0 0 1160 744">
<style>
text{font-family:Arial,Helvetica,sans-serif;fill:#202124}
.title{font-size:22px;font-weight:700}
.subtitle{font-size:13px;fill:#5f6368}
.header{font-size:12px;font-weight:700;letter-spacing:.04em;fill:#3c4043}
.row{font-size:13px}
.small{font-size:11px;fill:#5f6368}
.value{font-size:11px;fill:#202124}
</style>
<text class="title" x="44" y="34">Full-information bifactor loadings for intrinsic capacity</text>
<text class="subtitle" x="44" y="56">Standardized loadings from per-individual repeated indicator files</text>
<text class="header" x="44" y="78">INDICATOR</text>
<text class="header" x="210" y="78">DOMAIN</text>
<text class="header" x="505" y="78">DOMAIN-SPECIFIC FACTOR</text>
<text class="header" x="840" y="78">GENERAL IC FACTOR</text>
<line x1="610" y1="70" x2="610" y2="710" stroke="#d5d8dc" />
<line x1="910" y1="70" x2="910" y2="710" stroke="#d5d8dc" />
<rect x="32" y="70" width="1096" height="34" fill="#f8f9fa" />
<text class="row" x="44" y="93">depres</text>
<text class="small" x="210" y="93">psychological</text>
<rect x="610.0" y="81" width="147.3" height="14" rx="2" fill="#4575b4" opacity="0.82" />
<rect x="910.0" y="81" width="92.9" height="14" rx="2" fill="#111827" opacity="0.82" />
<text class="value" x="784" y="92">+0.708</text>
<text class="value" x="1084" y="92">+0.447</text>
<text class="row" x="44" y="127">effort</text>
<text class="small" x="210" y="127">psychological</text>
<rect x="610.0" y="115" width="120.6" height="14" rx="2" fill="#4575b4" opacity="0.82" />
<rect x="910.0" y="115" width="136.9" height="14" rx="2" fill="#111827" opacity="0.82" />
<text class="value" x="784" y="126">+0.580</text>
<text class="value" x="1084" y="126">+0.658</text>
<rect x="32" y="138" width="1096" height="34" fill="#f8f9fa" />
<text class="row" x="44" y="161">sleep</text>
<text class="small" x="210" y="161">psychological</text>
<rect x="610.0" y="149" width="122.5" height="14" rx="2" fill="#4575b4" opacity="0.82" />
<rect x="910.0" y="149" width="30.4" height="14" rx="2" fill="#111827" opacity="0.82" />
<text class="value" x="784" y="160">+0.589</text>
<text class="value" x="1084" y="160">+0.146</text>
<text class="row" x="44" y="195">happy</text>
<text class="small" x="210" y="195">psychological</text>
<rect x="610.0" y="183" width="145.1" height="14" rx="2" fill="#4575b4" opacity="0.82" />
<rect x="910.0" y="183" width="49.8" height="14" rx="2" fill="#111827" opacity="0.82" />
<text class="value" x="784" y="194">+0.698</text>
<text class="value" x="1084" y="194">+0.240</text>
<rect x="32" y="206" width="1096" height="34" fill="#f8f9fa" />
<text class="row" x="44" y="229">lonely</text>
<text class="small" x="210" y="229">psychological</text>
<rect x="610.0" y="217" width="114.0" height="14" rx="2" fill="#4575b4" opacity="0.82" />
<rect x="910.0" y="217" width="92.5" height="14" rx="2" fill="#111827" opacity="0.82" />
<text class="value" x="784" y="228">+0.548</text>
<text class="value" x="1084" y="228">+0.445</text>
<text class="row" x="44" y="263">going</text>
<text class="small" x="210" y="263">psychological</text>
<rect x="610.0" y="251" width="124.9" height="14" rx="2" fill="#4575b4" opacity="0.82" />
<rect x="910.0" y="251" width="121.4" height="14" rx="2" fill="#111827" opacity="0.82" />
<text class="value" x="784" y="262">+0.601</text>
<text class="value" x="1084" y="262">+0.584</text>
<rect x="32" y="274" width="1096" height="34" fill="#f8f9fa" />
<text class="row" x="44" y="297">wspeed</text>
<text class="small" x="210" y="297">locomotor</text>
<rect x="610.0" y="285" width="85.5" height="14" rx="2" fill="#1b9e77" opacity="0.82" />
<rect x="910.0" y="285" width="141.9" height="14" rx="2" fill="#111827" opacity="0.82" />
<text class="value" x="784" y="296">+0.411</text>
<text class="value" x="1084" y="296">+0.682</text>
<text class="row" x="44" y="331">chr5sec</text>
<text class="small" x="210" y="331">locomotor</text>
<rect x="610.0" y="319" width="82.2" height="14" rx="2" fill="#1b9e77" opacity="0.82" />
<rect x="910.0" y="319" width="116.0" height="14" rx="2" fill="#111827" opacity="0.82" />
<text class="value" x="784" y="330">+0.395</text>
<text class="value" x="1084" y="330">+0.558</text>
<rect x="32" y="342" width="1096" height="34" fill="#f8f9fa" />
<text class="row" x="44" y="365">balance</text>
<text class="small" x="210" y="365">locomotor</text>
<rect x="610.0" y="353" width="43.7" height="14" rx="2" fill="#1b9e77" opacity="0.82" />
<rect x="910.0" y="353" width="112.3" height="14" rx="2" fill="#111827" opacity="0.82" />
<text class="value" x="784" y="364">+0.210</text>
<text class="value" x="1084" y="364">+0.540</text>
<text class="row" x="44" y="399">grip</text>
<text class="small" x="210" y="399">vitality</text>
<rect x="610.0" y="387" width="141.9" height="14" rx="2" fill="#d95f02" opacity="0.82" />
<rect x="910.0" y="387" width="92.5" height="14" rx="2" fill="#111827" opacity="0.82" />
<text class="value" x="784" y="398">+0.682</text>
<text class="value" x="1084" y="398">+0.445</text>
<rect x="32" y="410" width="1096" height="34" fill="#f8f9fa" />
<text class="row" x="44" y="433">fev</text>
<text class="small" x="210" y="433">vitality</text>
<rect x="610.0" y="421" width="138.3" height="14" rx="2" fill="#d95f02" opacity="0.82" />
<rect x="910.0" y="421" width="95.9" height="14" rx="2" fill="#111827" opacity="0.82" />
<text class="value" x="784" y="432">+0.665</text>
<text class="value" x="1084" y="432">+0.461</text>
<text class="row" x="44" y="467">hba</text>
<text class="small" x="210" y="467">vitality</text>
<rect x="610.0" y="455" width="3.9" height="14" rx="2" fill="#d95f02" opacity="0.82" />
<rect x="855.5" y="455" width="54.5" height="14" rx="2" fill="#111827" opacity="0.82" />
<text class="value" x="784" y="466">+0.019</text>
<text class="value" x="1084" y="466">-0.262</text>
<rect x="32" y="478" width="1096" height="34" fill="#f8f9fa" />
<text class="row" x="44" y="501">imrc</text>
<text class="small" x="210" y="501">cognitive</text>
<rect x="610.0" y="489" width="145.5" height="14" rx="2" fill="#756bb1" opacity="0.82" />
<rect x="910.0" y="489" width="78.7" height="14" rx="2" fill="#111827" opacity="0.82" />
<text class="value" x="784" y="500">+0.699</text>
<text class="value" x="1084" y="500">+0.379</text>
<text class="row" x="44" y="535">dlrc</text>
<text class="small" x="210" y="535">cognitive</text>
<rect x="610.0" y="523" width="147.5" height="14" rx="2" fill="#756bb1" opacity="0.82" />
<rect x="910.0" y="523" width="77.5" height="14" rx="2" fill="#111827" opacity="0.82" />
<text class="value" x="784" y="534">+0.709</text>
<text class="value" x="1084" y="534">+0.372</text>
<rect x="32" y="546" width="1096" height="34" fill="#f8f9fa" />
<text class="row" x="44" y="569">memory</text>
<text class="small" x="210" y="569">cognitive</text>
<rect x="610.0" y="557" width="79.4" height="14" rx="2" fill="#756bb1" opacity="0.82" />
<rect x="910.0" y="557" width="35.7" height="14" rx="2" fill="#111827" opacity="0.82" />
<text class="value" x="784" y="568">+0.382</text>
<text class="value" x="1084" y="568">+0.172</text>
<text class="row" x="44" y="603">hearing</text>
<text class="small" x="210" y="603">sensory</text>
<rect x="610.0" y="591" width="74.2" height="14" rx="2" fill="#6b6b6b" opacity="0.82" />
<rect x="910.0" y="591" width="57.5" height="14" rx="2" fill="#111827" opacity="0.82" />
<text class="value" x="784" y="602">+0.357</text>
<text class="value" x="1084" y="602">+0.276</text>
<rect x="32" y="614" width="1096" height="34" fill="#f8f9fa" />
<text class="row" x="44" y="637">nsight</text>
<text class="small" x="210" y="637">sensory</text>
<rect x="610.0" y="625" width="159.8" height="14" rx="2" fill="#6b6b6b" opacity="0.82" />
<rect x="910.0" y="625" width="62.8" height="14" rx="2" fill="#111827" opacity="0.82" />
<text class="value" x="784" y="636">+0.768</text>
<text class="value" x="1084" y="636">+0.302</text>
<text class="row" x="44" y="671">dsight</text>
<text class="small" x="210" y="671">sensory</text>
<rect x="610.0" y="659" width="160.0" height="14" rx="2" fill="#6b6b6b" opacity="0.82" />
<rect x="910.0" y="659" width="63.0" height="14" rx="2" fill="#111827" opacity="0.82" />
<text class="value" x="784" y="670">+0.769</text>
<text class="value" x="1084" y="670">+0.303</text>
<text class="small" x="44" y="726">Continuous: wspeed, chr5sec, grip, fev, hba. Ordinal probit: depres, effort, sleep, happy, lonely, going, balance, imrc, dlrc, memory, hearing, nsight, dsight.</text>
</svg>
